<?xml version="1.0" encoding="utf-8"?>
<!-- Generator: Adobe Illustrator 22.1.0, SVG Export Plug-In . SVG Version: 6.00 Build 0)  -->
<svg version="1.1" id="Layer_1" xmlns="http://www.w3.org/2000/svg" xmlns:xlink="http://www.w3.org/1999/xlink" x="0px" y="0px"
	 viewBox="0 0 620 645.6" style="enable-background:new 0 0 620 645.6;" xml:space="preserve">
<style type="text/css">
	.st0{fill:#277A9F;}
	.st1{fill:none;stroke:#277A9F;stroke-width:30;}
</style>
<title>logo</title>
<desc>Created with Sketch.</desc>
<g id="Page-1">
	<g id="logo_x40_2x" transform="translate(-152.000000, -162.000000)">
		<g id="logo" transform="translate(149.000000, 162.000000)">
			<g id="helm" transform="translate(22.377622, 0.000000)">
				
					<g id="rungs-bottom" transform="translate(41.500000, 108.500000) scale(1, -1) translate(-41.500000, -108.500000) translate(0.000000, 91.000000)">
					<path id="Oval-1" class="st0" d="M417.2-357.5c10.4,7.3,34.3-8.7,53.2-35.8s25.9-55,15.4-62.3c-10.4-7.3-34.3,8.7-53.2,35.8
						C413.7-392.7,406.8-364.8,417.2-357.5z"/>
					<path id="Oval-1-Copy" class="st0" d="M167.6-357.5c-10.4,7.3-34.3-8.7-53.2-35.8c-19-27.1-25.9-55-15.4-62.3
						s34.3,8.7,53.2,35.8S178.1-364.8,167.6-357.5z"/>
					<path id="Oval-1-Copy-4" class="st0" d="M292.3-399.9c-12.7,0-23.1-26.8-23.1-59.9s10.3-59.9,23.1-59.9s23.1,26.8,23.1,59.9
						S305-399.9,292.3-399.9z"/>
				</g>
				<g id="rungs-top">
					<path id="Oval-1_1_" class="st0" d="M417.2,162.5c10.4,7.3,34.3-8.7,53.2-35.8s25.9-55,15.4-62.3c-10.4-7.3-34.3,8.7-53.2,35.8
						S406.8,155.2,417.2,162.5z"/>
					<path id="Oval-1-Copy_1_" class="st0" d="M167.6,162.5c-10.4,7.3-34.3-8.7-53.2-35.8S88.5,71.8,99,64.4s34.3,8.7,53.2,35.8
						S178.1,155.2,167.6,162.5z"/>
					<path id="Oval-1-Copy-4_1_" class="st0" d="M292.3,120.1c-12.7,0-23.1-26.8-23.1-59.9s10.3-59.9,23.1-59.9s23.1,26.8,23.1,59.9
						S305,120.1,292.3,120.1z"/>
				</g>
				<path id="Oval-1_2_" class="st1" d="M470.2,215.6C433,154.4,365.6,113.5,288.7,113.5c-74.9,0-140.7,38.7-178.4,97.2 M114.3,446
					c38.3,55.1,102.1,91.1,174.4,91.1c72.4,0,136.3-36.2,174.6-91.4"/>
			</g>
			<path id="HELM" class="st0" d="M3.6,244.1H48v62.5h50.1v-62.5h44.4V412H98.1v-66.6H48V412H3.6V244.1z M179.8,244.1h108.5v37.2
				h-64.1v26.3H279v37.2h-54.8v30h66.6V412H179.8V244.1z M323.4,244.1h44.4v130.7h63.5V412h-108V244.1z M460.3,244.1h46l26.3,69.7
				l9.3,27.4h1l9.3-27.4l25.3-69.7h46V412h-41.3v-49.6c0-4.3,0.2-9,0.6-14.2c0.4-5.2,0.9-10.5,1.4-15.9c0.5-5.4,1.1-10.7,1.8-15.9
				c0.7-5.2,1.3-9.8,1.8-13.9h-1l-13.9,39.3l-23.2,56.6h-16.5l-23.2-56.6l-13.4-39.3h-1c0.5,4.1,1.1,8.8,1.8,13.9
				c0.7,5.2,1.3,10.5,1.8,15.9c0.5,5.4,1,10.7,1.4,15.9c0.4,5.2,0.6,9.9,0.6,14.2V412h-40.8V244.1z"/>
		</g>
	</g>
</g>
</svg>
