<?xml version="1.0" encoding="utf-8"?>
<!-- Generator: Adobe Illustrator 22.1.0, SVG Export Plug-In . SVG Version: 6.00 Build 0)  -->
<svg version="1.1" id="Layer_1" xmlns="http://www.w3.org/2000/svg" xmlns:xlink="http://www.w3.org/1999/xlink" x="0px" y="0px"
	 viewBox="0 0 620 647.6" style="enable-background:new 0 0 620 647.6;" xml:space="preserve">
<style type="text/css">
	.st0{fill:#FFFFFF;}
	.st1{fill:none;stroke:#FFFFFF;stroke-width:32;}
</style>
<title>logo white</title>
<desc>Created with Sketch.</desc>
<g id="Page-1">
	<g id="logo_x40_2x" transform="translate(-608.000000, -155.000000)">
		<g id="logo-white" transform="translate(604.000000, 155.000000)">
			<g id="helm" transform="translate(25.000000, 0.000000)">
				
					<g id="rungs-bottom" transform="translate(46.500000, 121.500000) scale(1, -1) translate(-46.500000, -121.500000) translate(0.000000, 102.000000)">
					<path id="Oval-1" class="st0" d="M414.2-342.3c10.4,7.3,34.1-8.7,52.9-35.7c18.9-27,25.8-54.7,15.4-61.9
						c-10.4-7.3-34.1,8.7-52.9,35.7S403.8-349.5,414.2-342.3z"/>
					<path id="Oval-1-Copy" class="st0" d="M166.3-342.3c-10.4,7.3-34.1-8.7-52.9-35.7S87.6-432.6,98-439.9
						c10.4-7.3,34.1,8.7,52.9,35.7C169.8-377.3,176.7-349.5,166.3-342.3z"/>
					<path id="Oval-1-Copy-4" class="st0" d="M290.1-384.5c-12.7,0-22.9-26.7-22.9-59.6s10.3-59.6,22.9-59.6
						c12.7,0,22.9,26.7,22.9,59.6S302.8-384.5,290.1-384.5z"/>
				</g>
				<g id="rungs-top">
					<path id="Oval-1_1_" class="st0" d="M414.2,163.8c10.4,7.3,34.1-8.7,52.9-35.7s25.8-54.7,15.4-61.9
						c-10.4-7.3-34.1,8.7-52.9,35.7S403.8,156.5,414.2,163.8z"/>
					<path id="Oval-1-Copy_1_" class="st0" d="M166.3,163.8c-10.4,7.3-34.1-8.7-52.9-35.7S87.6,73.5,98,66.2s34.1,8.7,52.9,35.7
						S176.7,156.5,166.3,163.8z"/>
					<path id="Oval-1-Copy-4_1_" class="st0" d="M290.1,121.6c-12.7,0-22.9-26.7-22.9-59.6s10.3-59.6,22.9-59.6
						C302.8,2.4,313,29.1,313,62S302.8,121.6,290.1,121.6z"/>
				</g>
				<path id="Oval-1_2_" class="st1" d="M466.9,216.7C430,155.7,363,115,286.5,115c-74.4,0-139.8,38.5-177.3,96.7 M113.2,445.9
					c38.1,54.8,101.5,90.7,173.3,90.7c71.9,0,135.4-36,173.5-91"/>
			</g>
			<path id="HELM" class="st0" d="M6,246.1h44.1v62.1H100v-62.1h44.1v166.8H100v-66.2H50.2v66.2H6V246.1z M181.1,246.1h107.8v37
				h-63.7v26.2h54.4v37h-54.4v29.8h66.2v37H181.1V246.1z M323.8,246.1h44.1v129.9H431v37H323.8V246.1z M459.8,246.1h45.7l26.2,69.3
				l9.2,27.2h1l9.2-27.2l25.2-69.3H622v166.8h-41.1v-49.3c0-4.3,0.2-9,0.6-14.1c0.4-5.1,0.9-10.4,1.4-15.8
				c0.5-5.4,1.1-10.7,1.8-15.8c0.7-5.1,1.3-9.8,1.8-13.9h-1l-13.9,39l-23.1,56.2h-16.4l-23.1-56.2l-13.3-39h-1
				c0.5,4.1,1.1,8.7,1.8,13.9c0.7,5.1,1.3,10.4,1.8,15.8c0.5,5.4,1,10.7,1.4,15.8c0.4,5.1,0.6,9.8,0.6,14.1v49.3h-40.6V246.1z"/>
		</g>
	</g>
</g>
</svg>
