<?xml version="1.0" encoding="UTF-8" standalone="no"?>
<svg width="135px" height="141px" viewBox="0 0 135 141" version="1.1" xmlns="http://www.w3.org/2000/svg" xmlns:xlink="http://www.w3.org/1999/xlink">
    <!-- Generator: Sketch 39 (31667) - http://www.bohemiancoding.com/sketch -->
    <title>logo white</title>
    <desc>Created with Sketch.</desc>
    <defs></defs>
    <g id="Page-1" stroke="none" stroke-width="1" fill="none" fill-rule="evenodd">
        <g id="logo@2x" transform="translate(-608.000000, -155.000000)">
            <g id="logo-white" transform="translate(604.000000, 155.000000)">
                <g id="helm" transform="translate(25.000000, 0.000000)">
                    <g id="rungs-bottom" transform="translate(46.500000, 121.500000) scale(1, -1) translate(-46.500000, -121.500000) translate(0.000000, 102.000000)" fill="#FFFFFF">
                        <path d="M81,38 C83.7614237,38 86,32.1797017 86,25 C86,17.8202983 83.7614237,12 81,12 C78.2385763,12 76,17.8202983 76,25 C76,32.1797017 78.2385763,38 81,38 Z" id="Oval-1" transform="translate(81.000000, 25.000000) rotate(35.000000) translate(-81.000000, -25.000000) "></path>
                        <path d="M12,38 C14.7614237,38 17,32.1797017 17,25 C17,17.8202983 14.7614237,12 12,12 C9.23857625,12 7,17.8202983 7,25 C7,32.1797017 9.23857625,38 12,38 Z" id="Oval-1-Copy" transform="translate(12.000000, 25.000000) scale(-1, 1) rotate(35.000000) translate(-12.000000, -25.000000) "></path>
                        <path d="M46.4726562,26.4404297 C49.23408,26.4404297 51.4726562,20.6201314 51.4726562,13.4404297 C51.4726562,6.26072794 49.23408,0.440429688 46.4726562,0.440429688 C43.7112325,0.440429688 41.4726562,6.26072794 41.4726562,13.4404297 C41.4726562,20.6201314 43.7112325,26.4404297 46.4726562,26.4404297 Z" id="Oval-1-Copy-4" transform="translate(46.472656, 13.440430) scale(-1, 1) translate(-46.472656, -13.440430) "></path>
                    </g>
                    <g id="rungs-top" fill="#FFFFFF">
                        <path d="M81,38 C83.7614237,38 86,32.1797017 86,25 C86,17.8202983 83.7614237,12 81,12 C78.2385763,12 76,17.8202983 76,25 C76,32.1797017 78.2385763,38 81,38 Z" id="Oval-1" transform="translate(81.000000, 25.000000) rotate(35.000000) translate(-81.000000, -25.000000) "></path>
                        <path d="M12,38 C14.7614237,38 17,32.1797017 17,25 C17,17.8202983 14.7614237,12 12,12 C9.23857625,12 7,17.8202983 7,25 C7,32.1797017 9.23857625,38 12,38 Z" id="Oval-1-Copy" transform="translate(12.000000, 25.000000) scale(-1, 1) rotate(35.000000) translate(-12.000000, -25.000000) "></path>
                        <path d="M46.4726562,26.4404297 C49.23408,26.4404297 51.4726562,20.6201314 51.4726562,13.4404297 C51.4726562,6.26072794 49.23408,0.440429688 46.4726562,0.440429688 C43.7112325,0.440429688 41.4726562,6.26072794 41.4726562,13.4404297 C41.4726562,20.6201314 43.7112325,26.4404297 46.4726562,26.4404297 Z" id="Oval-1-Copy-4" transform="translate(46.472656, 13.440430) scale(-1, 1) translate(-46.472656, -13.440430) "></path>
                    </g>
                    <path d="M85.0478329,47.1830807 C76.9845187,33.8854086 62.372761,25 45.6857049,25 C29.4551882,25 15.1879675,33.4058696 7,46.1016516 M7.87612409,97.2071463 C16.182663,109.168614 30.0196249,117 45.6857049,117 C61.3802506,117 75.2390248,109.140128 83.5405104,97.1419028" id="Oval-1" stroke="#FFFFFF" stroke-width="8"></path>
                </g>
                <path d="M4.032,53.6 L13.664,53.6 L13.664,67.152 L24.528,67.152 L24.528,53.6 L34.16,53.6 L34.16,90 L24.528,90 L24.528,75.552 L13.664,75.552 L13.664,90 L4.032,90 L4.032,53.6 Z M42.224,53.6 L65.744,53.6 L65.744,61.664 L51.856,61.664 L51.856,67.376 L63.728,67.376 L63.728,75.44 L51.856,75.44 L51.856,81.936 L66.304,81.936 L66.304,90 L42.224,90 L42.224,53.6 Z M73.36,53.6 L82.992,53.6 L82.992,81.936 L96.768,81.936 L96.768,90 L73.36,90 L73.36,53.6 Z M103.04,53.6 L113.008,53.6 L118.72,68.72 L120.736,74.656 L120.96,74.656 L122.976,68.72 L128.464,53.6 L138.432,53.6 L138.432,90 L129.472,90 L129.472,79.248 C129.472,78.314662 129.518666,77.2880056 129.612,76.168 C129.705334,75.0479944 129.807999,73.9000059 129.92,72.724 C130.032001,71.5479941 130.162666,70.4000056 130.312,69.28 C130.461334,68.1599944 130.591999,67.1520045 130.704,66.256 L130.48,66.256 L127.456,74.768 L122.416,87.032 L118.832,87.032 L113.792,74.768 L110.88,66.256 L110.656,66.256 C110.768001,67.1520045 110.898666,68.1599944 111.048,69.28 C111.197334,70.4000056 111.327999,71.5479941 111.44,72.724 C111.552001,73.9000059 111.654666,75.0479944 111.748,76.168 C111.841334,77.2880056 111.888,78.314662 111.888,79.248 L111.888,90 L103.04,90 L103.04,53.6 Z" id="HELM" fill="#FFFFFF"></path>
            </g>
        </g>
    </g>
</svg>