<?xml version="1.0" encoding="UTF-8" standalone="no"?>
<svg width="121px" height="126px" viewBox="0 0 121 126" version="1.1" xmlns="http://www.w3.org/2000/svg" xmlns:xlink="http://www.w3.org/1999/xlink">
    <!-- Generator: Sketch 39 (31667) - http://www.bohemiancoding.com/sketch -->
    <title>logo</title>
    <desc>Created with Sketch.</desc>
    <defs></defs>
    <g id="Page-1" stroke="none" stroke-width="1" fill="none" fill-rule="evenodd">
        <g id="logo@2x" transform="translate(-152.000000, -162.000000)">
            <g id="logo" transform="translate(149.000000, 162.000000)">
                <g id="helm" transform="translate(22.377622, 0.000000)">
                    <g id="rungs-bottom" transform="translate(41.500000, 108.500000) scale(1, -1) translate(-41.500000, -108.500000) translate(0.000000, 91.000000)" fill="#277A9F">
                        <path d="M72.5034965,33.9574468 C74.9752604,33.9574468 76.979021,28.7563292 76.979021,22.3404255 C76.979021,15.9245218 74.9752604,10.7234043 72.5034965,10.7234043 C70.0317326,10.7234043 68.027972,15.9245218 68.027972,22.3404255 C68.027972,28.7563292 70.0317326,33.9574468 72.5034965,33.9574468 Z" id="Oval-1" transform="translate(72.503497, 22.340426) rotate(35.000000) translate(-72.503497, -22.340426) "></path>
                        <path d="M10.7412587,33.9574468 C13.2130227,33.9574468 15.2167832,28.7563292 15.2167832,22.3404255 C15.2167832,15.9245218 13.2130227,10.7234043 10.7412587,10.7234043 C8.26949483,10.7234043 6.26573427,15.9245218 6.26573427,22.3404255 C6.26573427,28.7563292 8.26949483,33.9574468 10.7412587,33.9574468 Z" id="Oval-1-Copy" transform="translate(10.741259, 22.340426) scale(-1, 1) rotate(35.000000) translate(-10.741259, -22.340426) "></path>
                        <path d="M41.5979021,23.627618 C44.069666,23.627618 46.0734266,18.4265004 46.0734266,12.0105967 C46.0734266,5.59469305 44.069666,0.393575465 41.5979021,0.393575465 C39.1261382,0.393575465 37.1223776,5.59469305 37.1223776,12.0105967 C37.1223776,18.4265004 39.1261382,23.627618 41.5979021,23.627618 Z" id="Oval-1-Copy-4" transform="translate(41.597902, 12.010597) scale(-1, 1) translate(-41.597902, -12.010597) "></path>
                    </g>
                    <g id="rungs-top" fill="#277A9F">
                        <path d="M72.5034965,33.9574468 C74.9752604,33.9574468 76.979021,28.7563292 76.979021,22.3404255 C76.979021,15.9245218 74.9752604,10.7234043 72.5034965,10.7234043 C70.0317326,10.7234043 68.027972,15.9245218 68.027972,22.3404255 C68.027972,28.7563292 70.0317326,33.9574468 72.5034965,33.9574468 Z" id="Oval-1" transform="translate(72.503497, 22.340426) rotate(35.000000) translate(-72.503497, -22.340426) "></path>
                        <path d="M10.7412587,33.9574468 C13.2130227,33.9574468 15.2167832,28.7563292 15.2167832,22.3404255 C15.2167832,15.9245218 13.2130227,10.7234043 10.7412587,10.7234043 C8.26949483,10.7234043 6.26573427,15.9245218 6.26573427,22.3404255 C6.26573427,28.7563292 8.26949483,33.9574468 10.7412587,33.9574468 Z" id="Oval-1-Copy" transform="translate(10.741259, 22.340426) scale(-1, 1) rotate(35.000000) translate(-10.741259, -22.340426) "></path>
                        <path d="M41.5979021,23.627618 C44.069666,23.627618 46.0734266,18.4265004 46.0734266,12.0105967 C46.0734266,5.59469305 44.069666,0.393575465 41.5979021,0.393575465 C39.1261382,0.393575465 37.1223776,5.59469305 37.1223776,12.0105967 C37.1223776,18.4265004 39.1261382,23.627618 41.5979021,23.627618 Z" id="Oval-1-Copy-4" transform="translate(41.597902, 12.010597) scale(-1, 1) translate(-41.597902, -12.010597) "></path>
                    </g>
                    <path d="M76.1267316,42.163604 C68.9092195,30.2805779 55.8301637,22.3404255 40.8934981,22.3404255 C26.3654831,22.3404255 13.594824,29.8520537 6.26573427,41.1972205 M7.04995723,86.8659605 C14.4851809,97.5549315 26.8707132,104.553191 40.8934981,104.553191 C54.9417627,104.553191 67.3468194,97.5294765 74.7775198,86.8076578" id="Oval-1" stroke="#277A9F" stroke-width="7.16083916"></path>
                </g>
                <path d="M3.60906294,47.6947776 L12.2307133,47.6947776 L12.2307133,59.8252391 L21.9551329,59.8252391 L21.9551329,47.6947776 L30.5767832,47.6947776 L30.5767832,80.2765957 L21.9551329,80.2765957 L21.9551329,67.3441202 L12.2307133,67.3441202 L12.2307133,80.2765957 L3.60906294,80.2765957 L3.60906294,47.6947776 Z M37.7949091,47.6947776 L58.8477762,47.6947776 L58.8477762,54.9129034 L46.4165594,54.9129034 L46.4165594,60.0257426 L57.0432448,60.0257426 L57.0432448,67.2438685 L46.4165594,67.2438685 L46.4165594,73.0584699 L59.349035,73.0584699 L59.349035,80.2765957 L37.7949091,80.2765957 L37.7949091,47.6947776 Z M65.6648951,47.6947776 L74.2865455,47.6947776 L74.2865455,73.0584699 L86.6175105,73.0584699 L86.6175105,80.2765957 L65.6648951,80.2765957 L65.6648951,47.6947776 Z M92.2316084,47.6947776 L101.154014,47.6947776 L106.266853,61.2287636 L108.071385,66.5421062 L108.271888,66.5421062 L110.07642,61.2287636 L114.988755,47.6947776 L123.911161,47.6947776 L123.911161,80.2765957 L115.891021,80.2765957 L115.891021,70.6524279 C115.891021,69.8169925 115.932792,68.8980273 116.016336,67.8955048 C116.099879,66.8929823 116.191776,65.8654122 116.292028,64.8127636 C116.39228,63.760115 116.509239,62.7325448 116.642909,61.7300223 C116.776579,60.7274998 116.893538,59.8252431 116.99379,59.0232251 L116.793287,59.0232251 L114.08649,66.642358 L109.575161,77.6199244 L106.367105,77.6199244 L101.855776,66.642358 L99.2492308,59.0232251 L99.0487273,59.0232251 C99.1489795,59.8252431 99.2659387,60.7274998 99.3996084,61.7300223 C99.5332781,62.7325448 99.6502373,63.760115 99.7504895,64.8127636 C99.8507418,65.8654122 99.9426383,66.8929823 100.026182,67.8955048 C100.109725,68.8980273 100.151497,69.8169925 100.151497,70.6524279 L100.151497,80.2765957 L92.2316084,80.2765957 L92.2316084,47.6947776 Z" id="HELM" fill="#277A9F"></path>
            </g>
        </g>
    </g>
</svg>