<?xml version="1.0" encoding="utf-8"?>
<!-- Generator: Adobe Illustrator 22.1.0, SVG Export Plug-In . SVG Version: 6.00 Build 0)  -->
<svg version="1.1" id="Layer_1" xmlns="http://www.w3.org/2000/svg" xmlns:xlink="http://www.w3.org/1999/xlink" x="0px" y="0px"
	 viewBox="0 0 2834.6 2834.6" style="enable-background:new 0 0 2834.6 2834.6;" xml:space="preserve">
<style type="text/css">
	.st0{clip-path:url(#SVGID_3_);}
	.st1{clip-path:url(#SVGID_4_);fill:#257A9F;}
	.st2{clip-path:url(#SVGID_7_);}
	.st3{clip-path:url(#SVGID_8_);fill:#257A9F;}
	.st4{clip-path:url(#SVGID_11_);}
	.st5{clip-path:url(#SVGID_12_);fill:#257A9F;}
	.st6{clip-path:url(#SVGID_15_);}
	.st7{clip-path:url(#SVGID_16_);fill:#257A9F;}
	.st8{clip-path:url(#SVGID_19_);}
	.st9{clip-path:url(#SVGID_20_);fill:#257A9F;}
	.st10{clip-path:url(#SVGID_23_);}
	.st11{clip-path:url(#SVGID_24_);fill:#257A9F;}
	.st12{clip-path:url(#SVGID_26_);fill:none;stroke:#257A9F;stroke-width:7.1608;stroke-miterlimit:10;}
	.st13{clip-path:url(#SVGID_29_);}
	.st14{clip-path:url(#SVGID_30_);fill:#257A9F;}
</style>
<g>
	<g>
		<defs>
			<rect id="SVGID_1_" x="1355.8" y="1354" width="121" height="126"/>
		</defs>
		<defs>
			<path id="SVGID_2_" d="M1441.1,1448.1c2-1.4,6.6,1.7,10.3,6.9c3.7,5.3,5,10.7,3,12.1s-6.6-1.7-10.3-6.9
				C1440.4,1455,1439,1449.5,1441.1,1448.1L1441.1,1448.1z"/>
		</defs>
		<clipPath id="SVGID_3_">
			<use xlink:href="#SVGID_1_"  style="overflow:visible;"/>
		</clipPath>
		<clipPath id="SVGID_4_" class="st0">
			<use xlink:href="#SVGID_2_"  style="overflow:visible;"/>
		</clipPath>
		
			<rect x="1438.3" y="1441" transform="matrix(0.8192 -0.5736 0.5736 0.8192 -574.2485 1093.9949)" class="st1" width="19" height="33.2"/>
	</g>
	<g>
		<defs>
			<rect id="SVGID_5_" x="1355.8" y="1354" width="121" height="126"/>
		</defs>
		<defs>
			<path id="SVGID_6_" d="M1392.6,1448.1c-2-1.4-6.6,1.7-10.3,6.9s-5,10.7-3,12.1c2,1.4,6.6-1.7,10.3-6.9
				S1394.7,1449.5,1392.6,1448.1L1392.6,1448.1z"/>
		</defs>
		<clipPath id="SVGID_7_">
			<use xlink:href="#SVGID_5_"  style="overflow:visible;"/>
		</clipPath>
		<clipPath id="SVGID_8_" class="st2">
			<use xlink:href="#SVGID_6_"  style="overflow:visible;"/>
		</clipPath>
		
			<rect x="1369.4" y="1448.2" transform="matrix(0.5736 -0.8192 0.8192 0.5736 -603.0187 1756.8911)" class="st3" width="33.2" height="19"/>
	</g>
	<g>
		<defs>
			<rect id="SVGID_9_" x="1355.8" y="1354" width="121" height="126"/>
		</defs>
		<defs>
			<path id="SVGID_10_" d="M1416.8,1456.4c-2.5,0-4.5,5.2-4.5,11.6s2,11.6,4.5,11.6c2.5,0,4.5-5.2,4.5-11.6
				S1419.3,1456.4,1416.8,1456.4L1416.8,1456.4z"/>
		</defs>
		<clipPath id="SVGID_11_">
			<use xlink:href="#SVGID_9_"  style="overflow:visible;"/>
		</clipPath>
		<clipPath id="SVGID_12_" class="st4">
			<use xlink:href="#SVGID_10_"  style="overflow:visible;"/>
		</clipPath>
		<rect x="1407.3" y="1451.4" class="st5" width="19" height="33.2"/>
	</g>
	<g>
		<defs>
			<rect id="SVGID_13_" x="1355.8" y="1354" width="121" height="126"/>
		</defs>
		<defs>
			<path id="SVGID_14_" d="M1441.1,1385.8c2,1.4,6.6-1.7,10.3-6.9c3.7-5.3,5-10.7,3-12.1c-2-1.4-6.6,1.7-10.3,6.9
				C1440.4,1379,1439,1384.4,1441.1,1385.8L1441.1,1385.8z"/>
		</defs>
		<clipPath id="SVGID_15_">
			<use xlink:href="#SVGID_13_"  style="overflow:visible;"/>
		</clipPath>
		<clipPath id="SVGID_16_" class="st6">
			<use xlink:href="#SVGID_14_"  style="overflow:visible;"/>
		</clipPath>
		
			<rect x="1431.1" y="1366.8" transform="matrix(0.5736 -0.8192 0.8192 0.5736 -510.0697 1772.8038)" class="st7" width="33.2" height="19"/>
	</g>
	<g>
		<defs>
			<rect id="SVGID_17_" x="1355.8" y="1354" width="121" height="126"/>
		</defs>
		<defs>
			<path id="SVGID_18_" d="M1392.6,1385.8c-2,1.4-6.6-1.7-10.3-6.9s-5-10.7-3-12.1c2-1.4,6.6,1.7,10.3,6.9
				S1394.7,1384.4,1392.6,1385.8L1392.6,1385.8z"/>
		</defs>
		<clipPath id="SVGID_19_">
			<use xlink:href="#SVGID_17_"  style="overflow:visible;"/>
		</clipPath>
		<clipPath id="SVGID_20_" class="st8">
			<use xlink:href="#SVGID_18_"  style="overflow:visible;"/>
		</clipPath>
		
			<rect x="1376.5" y="1359.7" transform="matrix(0.8192 -0.5736 0.5736 0.8192 -538.7756 1043.8647)" class="st9" width="19" height="33.2"/>
	</g>
	<g>
		<defs>
			<rect id="SVGID_21_" x="1355.8" y="1354" width="121" height="126"/>
		</defs>
		<defs>
			<path id="SVGID_22_" d="M1416.8,1377.6c-2.5,0-4.5-5.2-4.5-11.6s2-11.6,4.5-11.6c2.5,0,4.5,5.2,4.5,11.6
				S1419.3,1377.6,1416.8,1377.6L1416.8,1377.6z"/>
		</defs>
		<clipPath id="SVGID_23_">
			<use xlink:href="#SVGID_21_"  style="overflow:visible;"/>
		</clipPath>
		<clipPath id="SVGID_24_" class="st10">
			<use xlink:href="#SVGID_22_"  style="overflow:visible;"/>
		</clipPath>
		<rect x="1407.3" y="1349.4" class="st11" width="19" height="33.2"/>
	</g>
	<g>
		<defs>
			<rect id="SVGID_25_" x="1355.8" y="1354" width="121" height="126"/>
		</defs>
		<clipPath id="SVGID_26_">
			<use xlink:href="#SVGID_25_"  style="overflow:visible;"/>
		</clipPath>
		<path class="st12" d="M1451.4,1396.1c-7.2-11.9-20.3-19.8-35.2-19.8c-14.5,0-27.3,7.5-34.6,18.9"/>
		<path class="st12" d="M1382.3,1440.8c7.4,10.7,19.8,17.7,33.8,17.7c14,0,26.5-7,33.9-17.7"/>
	</g>
	<g>
		<defs>
			<rect id="SVGID_27_" x="1355.8" y="1354" width="121" height="126"/>
		</defs>
		<defs>
			<path id="SVGID_28_" d="M1356.5,1401.7h8.6v12.1h9.7v-12.1h8.6v32.6h-8.6v-12.9h-9.7v12.9h-8.6V1401.7L1356.5,1401.7z
				 M1390.6,1401.7h21.1v7.2h-12.4v5.1h10.6v7.2h-10.6v5.8h12.9v7.2h-21.6V1401.7L1390.6,1401.7z M1418.5,1401.7h8.6v25.4h12.3v7.2
				h-21V1401.7L1418.5,1401.7z M1445.1,1401.7h8.9l5.1,13.5l1.8,5.3h0.2l1.8-5.3l4.9-13.5h8.9v32.6h-8v-9.6c0-0.8,0-1.8,0.1-2.8
				c0.1-1,0.2-2,0.3-3.1c0.1-1.1,0.2-2.1,0.4-3.1s0.3-1.9,0.4-2.7h-0.2l-2.7,7.6l-4.5,11h-3.2l-4.5-11l-2.6-7.6h-0.2
				c0.1,0.8,0.2,1.7,0.4,2.7s0.3,2,0.4,3.1c0.1,1.1,0.2,2.1,0.3,3.1c0.1,1,0.1,1.9,0.1,2.8v9.6h-7.9V1401.7L1445.1,1401.7z"/>
		</defs>
		<clipPath id="SVGID_29_">
			<use xlink:href="#SVGID_27_"  style="overflow:visible;"/>
		</clipPath>
		<clipPath id="SVGID_30_" class="st13">
			<use xlink:href="#SVGID_28_"  style="overflow:visible;"/>
		</clipPath>
		<rect x="1351.5" y="1396.7" class="st14" width="130.3" height="42.6"/>
	</g>
</g>
</svg>
